HIERARCHY
ROOT Hips
{
	OFFSET 0.000000 0.000000 0.000000
	CHANNELS 6 Xposition Yposition Zposition Zrotation Yrotation Xrotation 
	JOINT LHipJoint
	{
		OFFSET 0.000000 0.000000 0.000000
		CHANNELS 3 Zrotation Yrotation Xrotation
		JOINT LeftUpLeg
		{
			OFFSET 1.363060 -1.794630 0.839290
			CHANNELS 3 Zrotation Yrotation Xrotation
			JOINT LeftLeg
			{
				OFFSET 2.448110 -6.726130 0.000000
				CHANNELS 3 Zrotation Yrotation Xrotation
				JOINT LeftFoot
				{
					OFFSET 2.562200 -7.039590 0.000000
					CHANNELS 3 Zrotation Yrotation Xrotation
					JOINT LeftToeBase
					{
						OFFSET 0.157640 -0.433110 2.322550
						CHANNELS 3 Zrotation Yrotation Xrotation
						End Site
						{
							OFFSET 0.000000 0.000000 0.000000
						}
					}
				}
			}
		}
	}
	JOINT RHipJoint
	{
		OFFSET 0.000000 0.000000 0.000000
		CHANNELS 3 Zrotation Yrotation Xrotation
		JOINT RightUpLeg
		{
			OFFSET -1.305520 -1.794630 0.839290
			CHANNELS 3 Zrotation Yrotation Xrotation
			JOINT RightLeg
			{
				OFFSET -2.542530 -6.985550 0.000000
				CHANNELS 3 Zrotation Yrotation Xrotation
				JOINT RightFoot
				{
					OFFSET -2.568260 -7.056230 0.000000
					CHANNELS 3 Zrotation Yrotation Xrotation
					JOINT RightToeBase
					{
						OFFSET -0.164730 -0.452590 2.363150
						CHANNELS 3 Zrotation Yrotation Xrotation
						End Site
						{
							OFFSET 0.000000 0.000000 0.000000
						}
					}
				}
			}
		}
	}
	JOINT LowerBack
	{
		OFFSET 0.000000 0.000000 0.000000
		CHANNELS 3 Zrotation Yrotation Xrotation
		JOINT Spine
		{
			OFFSET 0.028270 2.035590 -0.193380
			CHANNELS 3 Zrotation Yrotation Xrotation
			JOINT Spine1
			{
				OFFSET 0.056720 2.048850 -0.042750
				CHANNELS 3 Zrotation Yrotation Xrotation
				JOINT Neck
				{
					OFFSET 0.000000 0.000000 0.000000
					CHANNELS 3 Zrotation Yrotation Xrotation
					JOINT Neck1
					{
						OFFSET -0.054170 1.746240 0.172020
						CHANNELS 3 Zrotation Yrotation Xrotation
						JOINT Head
						{
							OFFSET 0.104070 1.761360 -0.123970
							CHANNELS 3 Zrotation Yrotation Xrotation
							End Site
							{
								OFFSET 0.000000 0.000000 0.000000
							}
						}
					}
				}
				JOINT LeftShoulder
				{
					OFFSET 0.000000 0.000000 0.000000
					CHANNELS 3 Zrotation Yrotation Xrotation
					JOINT LeftArm
					{
						OFFSET 3.362410 1.200890 -0.311210
						CHANNELS 3 Zrotation Yrotation Xrotation
						JOINT LeftForeArm
						{
							OFFSET 4.983000 -0.000000 -0.000000
							CHANNELS 3 Zrotation Yrotation Xrotation
							JOINT LeftHand
							{
								OFFSET 3.483560 -0.000000 -0.000000
								CHANNELS 3 Zrotation Yrotation Xrotation
								JOINT LeftFingerBase
								{
									OFFSET 0.000000 0.000000 0.000000
									CHANNELS 3 Zrotation Yrotation Xrotation
									JOINT LeftHandIndex1
									{
										OFFSET 0.715260 -0.000000 -0.000000
										CHANNELS 3 Zrotation Yrotation Xrotation
										End Site
										{
											OFFSET 0.000000 0.000000 0.000000
										}
									}
								}
								JOINT LThumb
								{
									OFFSET 0.000000 0.000000 0.000000
									CHANNELS 3 Zrotation Yrotation Xrotation
									End Site
									{
										OFFSET 0.000000 0.000000 0.000000
									}
								}
							}
						}
					}
				}
				JOINT RightShoulder
				{
					OFFSET 0.000000 0.000000 0.000000
					CHANNELS 3 Zrotation Yrotation Xrotation
					JOINT RightArm
					{
						OFFSET -3.136600 1.374050 -0.404650
						CHANNELS 3 Zrotation Yrotation Xrotation
						JOINT RightForeArm
						{
							OFFSET -5.241900 -0.000000 -0.000000
							CHANNELS 3 Zrotation Yrotation Xrotation
							JOINT RightHand
							{
								OFFSET -3.444170 -0.000000 -0.000000
								CHANNELS 3 Zrotation Yrotation Xrotation
								JOINT RightFingerBase
								{
									OFFSET 0.000000 0.000000 0.000000
									CHANNELS 3 Zrotation Yrotation Xrotation
									JOINT RightHandIndex1
									{
										OFFSET -0.622530 -0.000000 -0.000000
										CHANNELS 3 Zrotation Yrotation Xrotation
										End Site
										{
											OFFSET 0.000000 0.000000 0.000000
										}
									}
								}
								JOINT RThumb
								{
									OFFSET 0.000000 0.000000 0.000000
									CHANNELS 3 Zrotation Yrotation Xrotation
									End Site
									{
										OFFSET 0.000000 0.000000 0.000000
									}
								}
							}
						}
					}
				}
			}
		}
	}
}
MOTION
Frames: 6
Frame Time: 0.008333
43.314329 16.056000 2.999155 167.280517 84.612090 159.745859 0.954193 -4.097147 -3.728676 -14.431043 8.685785 -29.158015 10.191495 19.551697 62.404308 0.879676 -1.590348 -3.402870 0.310700 3.583200 9.907000 -4.428220 3.462228 -3.918021 5.276906 10.713037 -29.415651 -7.619950 -18.107935 53.696504 -0.784320 8.251463 -5.786072 -1.506700 7.752600 -21.965100 -3.537828 3.119981 35.963232 -0.730521 4.378522 1.421396 -1.489973 3.037655 -2.810947 5.674758 21.700110 -8.074506 -9.495906 29.775907 4.393840 -3.736700 13.083000 11.503600 -8.579516 -4.820721 0.613235 -43.025942 -22.509033 36.759899 54.156230 -52.267299 -32.536568 -0.282637 -0.373526 -31.409656 29.066302 -14.617822 -7.989400 -7.125000 0.000000 0.000000 1.355600 13.589600 -0.999400 12.400184 3.663014 0.246302 59.795008 -11.232217 30.106353 -39.861324 47.130362 -20.197311 0.779627 1.050823 -17.450189 -8.529045 -19.234815 3.298300 7.125000 0.000000 0.000000 18.415200 -49.284900 -2.007300 
43.533844 16.170720 3.127534 173.053068 82.803673 166.064952 0.837194 -4.104193 -3.704045 -13.793632 7.740576 -28.434265 9.871005 19.415850 61.461938 0.943343 -1.930888 -2.560991 0.267700 3.328300 9.194200 -4.649895 3.504757 -3.830700 5.196927 13.082973 -28.519798 -6.927813 -17.737215 51.327116 -0.730735 10.159402 -3.358444 -2.055400 8.980600 -25.734500 -3.141927 2.628772 36.328533 -0.636098 3.854606 1.321600 -1.371323 2.760262 -3.185081 5.515897 21.754304 -8.342408 -9.714831 29.963334 4.391309 -3.724200 13.110800 11.673100 -8.486846 -4.942775 0.567767 -42.512494 -23.933625 36.539081 57.093124 -53.014559 -34.981361 -0.146560 -0.300740 -30.188491 29.251889 -16.728942 -9.124600 -7.125000 0.000000 0.000000 1.143000 11.214200 -0.899100 12.376441 3.725680 0.238504 59.853364 -11.545910 30.375320 -39.365625 46.880725 -19.814948 0.801741 1.057964 -17.982834 -9.034468 -19.415729 3.513700 7.125000 0.000000 0.000000 17.987400 -49.523300 -2.066000 
43.750905 16.280531 3.271281 176.063231 80.766574 169.661181 0.787143 -4.129902 -3.720384 -13.294296 6.794220 -27.955597 9.605659 19.296912 60.687519 0.932960 -1.983903 -1.424763 0.180300 2.735100 7.542200 -4.776412 3.531696 -3.759208 5.106049 14.707538 -27.774592 -6.497111 -17.489931 49.815884 -0.665387 11.667435 -1.215811 -2.948100 10.610500 -30.977300 -2.720296 2.061256 36.473323 -0.587940 3.276861 1.307461 -1.355094 2.470476 -3.197738 5.307782 21.760213 -8.709973 -9.837436 29.994004 4.264996 -3.695000 13.076800 11.696500 -8.426554 -5.022773 0.519260 -41.890567 -25.254458 36.108966 60.141577 -53.721166 -37.587892 -0.044071 -0.288346 -28.387253 29.698299 -17.449859 -9.615300 -7.125000 0.000000 0.000000 1.288600 10.390600 -1.035300 12.345712 3.762748 0.249020 59.921546 -11.560151 30.839384 -38.972980 46.697724 -19.500263 0.806350 1.093167 -18.716957 -8.998471 -19.871703 3.588300 7.125000 0.000000 0.000000 18.202600 -49.972000 -2.298300 
43.960389 16.383832 3.430075 177.464592 78.476825 171.586136 0.779902 -4.142622 -3.725615 -12.843437 5.662399 -27.614784 9.406638 19.212409 60.141129 0.976506 -2.291129 0.065154 0.185600 2.774500 7.651600 -4.810198 3.535181 -3.687591 5.083043 15.478349 -27.089139 -6.291790 -17.344180 49.088054 -0.595117 11.984493 1.872082 -2.768400 10.310300 -29.987600 -2.359198 1.511320 37.020504 -0.555372 2.662836 1.176246 -1.390143 2.187043 -3.772934 5.399654 21.705737 -8.587955 -10.117029 29.848966 3.960427 -3.855500 13.013500 11.597300 -8.389496 -5.133788 0.479878 -41.424430 -26.074175 36.254418 62.760513 -54.278052 -39.821462 0.050445 -0.264378 -27.018664 30.368053 -18.683743 -10.494200 -7.125000 0.000000 0.000000 1.504800 8.918600 -1.253700 12.293526 3.818592 0.240604 60.018316 -12.075700 31.627904 -38.801946 46.632115 -19.309317 0.814968 1.090243 -19.420639 -9.348660 -19.720374 3.691100 7.125000 0.000000 0.000000 17.782800 -49.862400 -2.193100 
44.163470 16.474968 3.612240 179.442015 75.994559 174.254281 0.811238 -4.161149 -3.774426 -11.959454 4.405383 -27.702452 9.264467 19.121743 59.745292 1.093415 -2.919767 1.811179 0.197000 2.858100 7.884000 -4.832762 3.514849 -3.614471 5.589097 15.682886 -26.614901 -6.203747 -17.305664 48.825128 -0.600946 11.057726 4.106021 -1.981000 8.826300 -25.253400 -1.643728 0.902498 37.518614 -0.482765 2.118349 1.043573 -1.433603 1.924358 -4.255613 5.050876 21.558940 -8.955995 -10.388023 29.661554 3.714876 -3.904400 12.873000 11.549400 -8.333579 -5.249304 0.415677 -41.125276 -27.013198 36.543003 65.204690 -54.729149 -41.861144 0.117611 -0.249840 -25.640037 31.214162 -19.145811 -11.064000 -7.125000 0.000000 0.000000 1.940100 8.257100 -1.642300 12.257030 3.885465 0.227566 59.982477 -12.489389 32.363848 -38.833733 46.664859 -19.288407 0.814615 1.111280 -20.019017 -9.364652 -19.896476 3.733700 7.125000 0.000000 0.000000 17.833600 -50.042100 -2.280500 
44.371247 16.537184 3.807104 -178.245936 73.522717 177.214214 0.878369 -4.187634 -3.849135 -10.694265 3.374842 -28.020647 9.145900 18.990303 59.373667 1.239021 -3.656365 3.578633 0.176800 2.708700 7.468700 -4.860830 3.481860 -3.549994 6.651485 15.608736 -25.938367 -6.141013 -17.309903 48.662959 -0.615873 9.983498 4.152120 -1.511500 7.764300 -22.000300 -0.603864 0.267791 37.685521 -0.464522 1.610820 0.929070 -1.901955 1.695437 -4.696130 5.616548 21.421361 -8.547296 -10.774364 29.312801 3.327311 -4.252600 12.758700 11.386000 -8.306160 -5.344416 0.394218 -40.439657 -27.427467 37.020398 67.642455 -55.193486 -43.948197 0.180480 -0.273357 -24.641182 31.824471 -19.483665 -11.466400 -7.125000 0.000000 0.000000 2.255500 7.814200 -1.929400 12.181110 3.913299 0.209454 60.486709 -13.152498 33.079577 -39.085371 46.871489 -19.429308 0.800325 1.167913 -20.269782 -8.397239 -20.924151 3.556400 7.125000 0.000000 0.000000 19.230800 -50.922700 -2.898100 
